<svg viewBox="0 0 32 32" xmlns="http://www.w3.org/2000/svg" xmlns:xlink="http://www.w3.org/1999/xlink" width="32.000000" height="32.000000" fill="none">
	<rect id="svg" width="32.000000" height="32.000000" x="0.000000" y="0.000000" />
	<path id="4559" d="M10.6667 2.66663L13.1734 5.17329" stroke="rgb(75,85,99)" stroke-linecap="round" stroke-linejoin="round" stroke-width="2.000000" />
	<path id="4560" d="M18.8267 5.17329L21.3333 2.66663" stroke="rgb(75,85,99)" stroke-linecap="round" stroke-linejoin="round" stroke-width="2.000000" />
	<path id="4561" d="M12 9.50663L12 8.17329C11.9677 7.45092 12.1316 6.73328 12.4743 6.09657C12.817 5.45986 13.3258 4.92784 13.9465 4.55701C14.5673 4.18617 15.2769 3.99036 16 3.99036C16.7231 3.99036 17.4327 4.18617 18.0534 4.55701C18.6742 4.92784 19.1829 5.45986 19.5257 6.09657C19.8684 6.73329 20.0323 7.45092 20 8.17329L20 9.50663" fill-rule="nonzero" stroke="rgb(75,85,99)" stroke-linecap="round" stroke-linejoin="round" stroke-width="2.000000" />
	<path id="4562" d="M8 18.6667L8 14.6667C8 13.7305 8.24643 12.8108 8.71453 12C9.18263 11.1893 9.8559 10.516 10.6667 10.0479C11.4774 9.57981 12.3971 9.33337 13.3333 9.33337L18.6667 9.33337C19.6029 9.33337 20.5226 9.57981 21.3333 10.0479C22.1441 10.516 22.8174 11.1893 23.2855 12C23.7536 12.8108 24 13.7305 24 14.6667L24 18.6667C24 23.0667 20.4 26.6667 16 26.6667C11.6 26.6667 8 23.0667 8 18.6667Z" fill-rule="nonzero" stroke="rgb(75,85,99)" stroke-linecap="round" stroke-linejoin="round" stroke-width="2.000000" />
	<path id="4563" d="M16 26.6666L16 14.6666" stroke="rgb(75,85,99)" stroke-linecap="round" stroke-linejoin="round" stroke-width="2.000000" />
	<path id="4564" d="M8.70667 12C6.13333 11.7333 4 9.46663 4 6.66663" stroke="rgb(75,85,99)" stroke-linecap="round" stroke-linejoin="round" stroke-width="2.000000" />
	<path id="4565" d="M8.00008 17.3334L2.66675 17.3334" stroke="rgb(75,85,99)" stroke-linecap="round" stroke-linejoin="round" stroke-width="2.000000" />
	<path id="4566" d="M4 28C4 25.2 6.26667 22.8 9.06667 22.6666" stroke="rgb(75,85,99)" stroke-linecap="round" stroke-linejoin="round" stroke-width="2.000000" />
	<path id="4567" d="M27.96 6.66663C27.96 9.46663 25.8267 11.7333 23.2933 12" stroke="rgb(75,85,99)" stroke-linecap="round" stroke-linejoin="round" stroke-width="2.000000" />
	<path id="4568" d="M29.3333 17.3334L24 17.3334" stroke="rgb(75,85,99)" stroke-linecap="round" stroke-linejoin="round" stroke-width="2.000000" />
	<path id="4569" d="M22.9333 22.6666C25.7334 22.8 28 25.2 28 28" stroke="rgb(75,85,99)" stroke-linecap="round" stroke-linejoin="round" stroke-width="2.000000" />
	<rect id="path.[object SVGAnimatedString]" width="2.510000" height="3.000000" x="11.000000" y="3.000000" />
	<rect id="path.[object SVGAnimatedString]" width="2.510000" height="3.000000" x="19.000000" y="3.000000" />
	<rect id="path.[object SVGAnimatedString]" width="8.010000" height="6.000000" x="12.000000" y="4.000000" />
	<rect id="path.[object SVGAnimatedString]" width="16.000000" height="17.000000" x="8.000000" y="9.000000" />
	<rect id="path.[object SVGAnimatedString]" width="4.710000" height="5.000000" x="4.000000" y="7.000000" />
	<rect id="path.[object SVGAnimatedString]" width="5.070000" height="5.000000" x="4.000000" y="23.000000" />
	<rect id="path.[object SVGAnimatedString]" width="4.670000" height="5.000000" x="23.000000" y="7.000000" />
	<rect id="path.[object SVGAnimatedString]" width="5.070000" height="5.000000" x="23.000000" y="23.000000" />
</svg>
