<svg viewBox="0 0 96 96" xmlns="http://www.w3.org/2000/svg" xmlns:xlink="http://www.w3.org/1999/xlink" width="96.000000" height="96.000000" fill="none">
	<rect id="svg" width="96.000000" height="96.000000" x="0.000000" y="0.000000" />
	<path id="4530" d="M48 64L46 68L50 68L48 64Z" fill-rule="nonzero" stroke="rgb(163,163,163)" stroke-linecap="round" stroke-linejoin="round" stroke-width="1.000000" />
	<path id="4531" d="M62 87.4641C62.6081 87.113 63.113 86.6081 63.4641 86C63.8152 85.3919 64 84.7022 64 84L64 80C65.5068 79.9991 66.9827 79.5726 68.2577 78.7698C69.5328 77.9669 70.5552 76.8203 71.2072 75.4619C71.8592 74.1035 72.1144 72.5886 71.9433 71.0915C71.7722 69.5945 71.1817 68.1762 70.24 67C74.8239 62.5692 77.9798 56.8702 79.3031 50.6337C80.6264 44.3973 80.0567 37.9077 77.6671 31.9972C75.2774 26.0868 71.1768 21.0248 65.891 17.4604C60.6053 13.896 54.3753 11.9917 48 11.9917C41.6247 11.9917 35.3948 13.896 30.109 17.4604C24.8232 21.0248 20.7226 26.0867 18.333 31.9972C15.9434 37.9077 15.3736 44.3973 16.6969 50.6337C18.0202 56.8702 21.1761 62.5692 25.76 67C24.8183 68.1762 24.2279 69.5945 24.0568 71.0915C23.8856 72.5886 24.1408 74.1035 24.7928 75.4619C25.4449 76.8203 26.4672 77.9669 27.7423 78.7698C29.0174 79.5726 30.4932 79.9991 32 80L32 84C32 84.7022 32.1848 85.3919 32.5359 86C32.887 86.6081 33.3919 87.113 34 87.4641C34.6081 87.8152 35.2979 88 36 88L60 88C60.7022 88 61.3919 87.8152 62 87.4641Z" fill-rule="nonzero" stroke="rgb(163,163,163)" stroke-linecap="round" stroke-linejoin="round" stroke-width="1.000000" />
	<circle id="4532" cx="60" cy="48" r="4" stroke="rgb(163,163,163)" stroke-linecap="round" stroke-linejoin="round" stroke-width="1.000000" />
	<circle id="4533" cx="36" cy="48" r="4" stroke="rgb(163,163,163)" stroke-linecap="round" stroke-linejoin="round" stroke-width="1.000000" />
	<rect id="path.[object SVGAnimatedString]" width="4.000000" height="4.000000" x="46.000000" y="64.000000" />
	<rect id="path.[object SVGAnimatedString]" width="64.000000" height="76.000000" x="16.000000" y="12.000000" />
	<rect id="circle.[object SVGAnimatedString]" width="8.000000" height="8.000000" x="56.000000" y="44.000000" />
	<rect id="circle.[object SVGAnimatedString]" width="8.000000" height="8.000000" x="32.000000" y="44.000000" />
</svg>
