<svg viewBox="0 0 56.5685 56.5684" xmlns="http://www.w3.org/2000/svg" xmlns:xlink="http://www.w3.org/1999/xlink" width="56.568542" height="56.568359" fill="none" customFrame="#000000">
	<defs>
		<linearGradient id="paint_linear_0" x1="0" x2="40" y1="0" y2="40" gradientUnits="userSpaceOnUse">
			<stop stop-color="rgb(141,37,37)" offset="0" stop-opacity="1" />
			<stop stop-color="rgb(0,0,0)" offset="1" stop-opacity="1" />
		</linearGradient>
		<clipPath id="clipPath_0">
			<rect width="24.000000" height="24.000000" x="0.000000" y="0.000000" fill="rgb(255,255,255)" transform="matrix(0.707107,-0.707107,0.707107,0.707107,11.3137,28.2842)" />
		</clipPath>
	</defs>
	<rect id="div.w-10 h-10 bg-gradient-to-br from-dota-red to-black border border-dota-gold rounded-sm flex items-center justify-center transform rotate-45" width="40.000000" height="40.000000" x="0.000000" y="0.000000" fill="url(#paint_linear_0)" transform="matrix(0.707107,-0.707107,0.707107,0.707107,0,28.2842)" />
	<rect id="div.w-10 h-10 bg-gradient-to-br from-dota-red to-black border border-dota-gold rounded-sm flex items-center justify-center transform rotate-45" width="39.000000" height="39.000000" x="0.500000" y="0.500000" stroke="rgb(194,163,107)" stroke-width="1.000000" transform="matrix(0.707107,-0.707107,0.707107,0.707107,0,28.2842)" />
	<g id="svg" clip-path="url(#clipPath_0)" customFrame="url(#clipPath_0)">
		<rect id="svg" width="24.000000" height="24.000000" x="0.000000" y="0.000000" transform="matrix(0.707107,-0.707107,0.707107,0.707107,11.3137,28.2842)" />
		<path id="4666" d="M11.5 14.5L0 3L0 0L3 0L14.5 11.5" fill-rule="nonzero" stroke="rgb(194,163,107)" stroke-linecap="round" stroke-linejoin="round" stroke-width="2.000000" transform="matrix(0.707107,-0.707107,0.707107,0.707107,15.5563,28.2842)" />
		<line id="4667" x1="0" x2="8.48528099" y1="0" y2="0" stroke="rgb(194,163,107)" stroke-linecap="round" stroke-linejoin="round" stroke-width="2.000000" transform="matrix(0,-1,1,0,33.9412,32.5269)" />
		<line id="4668" x1="33.9411621" x2="39.5980148" y1="28.2841797" y2="28.2841797" stroke="rgb(194,163,107)" stroke-linecap="round" stroke-linejoin="round" stroke-width="2.000000" />
		<line id="4669" x1="0" x2="2.82842708" y1="0" y2="0" stroke="rgb(194,163,107)" stroke-linecap="round" stroke-linejoin="round" stroke-width="2.000000" transform="matrix(0,-1,1,0,39.598,29.6985)" />
		<path id="4670" d="M0 3.5L3.5 0L6.5 0L6.5 3L3 6.5" fill-rule="nonzero" stroke="rgb(194,163,107)" stroke-linecap="round" stroke-linejoin="round" stroke-width="2.000000" transform="matrix(0.707107,-0.707107,0.707107,0.707107,23.6881,20.1523)" />
		<line id="4671" x1="24.7487183" x2="30.4055729" y1="34.6481934" y2="34.6481934" stroke="rgb(194,163,107)" stroke-linecap="round" stroke-linejoin="round" stroke-width="2.000000" />
		<line id="4672" x1="0" x2="4.2426405" y1="0" y2="0" stroke="rgb(194,163,107)" stroke-linecap="round" stroke-linejoin="round" stroke-width="2.000000" transform="matrix(0,1,-1,0,28.2843,35.3552)" />
		<line id="4673" x1="26.8700562" x2="29.6984825" y1="39.5979004" y2="39.5979004" stroke="rgb(194,163,107)" stroke-linecap="round" stroke-linejoin="round" stroke-width="2.000000" />
		<rect id="polyline.[object SVGAnimatedString]" width="14.500000" height="15.000000" x="0.000000" y="0.000000" transform="matrix(0.707107,-0.707107,0.707107,0.707107,15.5563,28.2842)" />
		<rect id="line.[object SVGAnimatedString]" width="6.000000" height="6.000000" x="0.000000" y="0.000000" transform="matrix(0.707107,-0.707107,0.707107,0.707107,29.6985,28.2842)" />
		<rect id="line.[object SVGAnimatedString]" width="4.000000" height="4.000000" x="0.000000" y="0.000000" transform="matrix(0.707107,-0.707107,0.707107,0.707107,33.9412,28.2842)" />
		<rect id="line.[object SVGAnimatedString]" width="2.000000" height="2.000000" x="0.000000" y="0.000000" transform="matrix(0.707107,-0.707107,0.707107,0.707107,38.1838,28.2842)" />
		<rect id="polyline.[object SVGAnimatedString]" width="6.500000" height="7.000000" x="0.000000" y="0.000000" transform="matrix(0.707107,-0.707107,0.707107,0.707107,24.0416,19.7988)" />
		<rect id="line.[object SVGAnimatedString]" width="4.000000" height="4.000000" x="0.000000" y="0.000000" transform="matrix(0.707107,-0.707107,0.707107,0.707107,24.7487,34.6482)" />
		<rect id="line.[object SVGAnimatedString]" width="3.000000" height="3.000000" x="0.000000" y="0.000000" transform="matrix(0.707107,-0.707107,0.707107,0.707107,26.163,37.4766)" />
		<rect id="line.[object SVGAnimatedString]" width="2.000000" height="2.000000" x="0.000000" y="0.000000" transform="matrix(0.707107,-0.707107,0.707107,0.707107,26.8701,39.5979)" />
	</g>
</svg>
