<svg viewBox="0 0 42 46" xmlns="http://www.w3.org/2000/svg" xmlns:xlink="http://www.w3.org/1999/xlink" width="42.000000" height="46.000000" fill="none" customFrame="#000000">
	<defs>
		<clipPath id="clipPath_3">
			<rect width="42.000000" height="42.000000" x="0.000000" y="4.000000" rx="4.000000" fill="rgb(255,255,255)" />
		</clipPath>
		<clipPath id="clipPath_4">
			<rect width="24.000000" height="24.000000" x="9.000000" y="13.000000" fill="rgb(255,255,255)" />
		</clipPath>
	</defs>
	<rect id="margin_wrapper11" width="42.000000" height="46.000000" x="0.000000" y="0.000000" />
	<g id="div.flex-shrink-0 mt-1 p-2 bg-black/50 rounded border border-dota-border group-hover:border-dota-gold transition-colors" customFrame="url(#clipPath_3)">
		<rect id="div.flex-shrink-0 mt-1 p-2 bg-black/50 rounded border border-dota-border group-hover:border-dota-gold transition-colors" width="42.000000" height="42.000000" x="0.000000" y="4.000000" rx="4.000000" fill="rgb(0,0,0)" fill-opacity="0.5" />
		<rect id="div.flex-shrink-0 mt-1 p-2 bg-black/50 rounded border border-dota-border group-hover:border-dota-gold transition-colors" width="41.000000" height="41.000000" x="0.500000" y="4.500000" rx="3.500000" stroke="rgb(58,58,58)" stroke-width="1.000000" />
		<g id="svg" clip-path="url(#clipPath_4)" customFrame="url(#clipPath_4)">
			<rect id="svg" width="24.000000" height="24.000000" x="9.000000" y="13.000000" />
			<path id="4542" d="M23.5 30.5L12 19L12 16L15 16L26.5 27.5" fill-rule="nonzero" stroke="rgb(163,163,163)" stroke-linecap="round" stroke-linejoin="round" stroke-width="2.000000" />
			<line id="4543" x1="0" x2="8.48528099" y1="0" y2="0" stroke="rgb(163,163,163)" stroke-linecap="round" stroke-linejoin="round" stroke-width="2.000000" transform="matrix(0.707107,-0.707107,0.707107,0.707107,22,32)" />
			<line id="4544" x1="0" x2="5.65685415" y1="0" y2="0" stroke="rgb(163,163,163)" stroke-linecap="round" stroke-linejoin="round" stroke-width="2.000000" transform="matrix(0.707107,0.707107,-0.707107,0.707107,25,29)" />
			<line id="4545" x1="0" x2="2.82842708" y1="0" y2="0" stroke="rgb(163,163,163)" stroke-linecap="round" stroke-linejoin="round" stroke-width="2.000000" transform="matrix(0.707107,-0.707107,0.707107,0.707107,28,34)" />
			<rect id="polyline.[object SVGAnimatedString]" width="14.500000" height="15.000000" x="12.000000" y="16.000000" />
			<rect id="line.[object SVGAnimatedString]" width="6.000000" height="6.000000" x="22.000000" y="26.000000" />
			<rect id="line.[object SVGAnimatedString]" width="4.000000" height="4.000000" x="25.000000" y="29.000000" />
			<rect id="line.[object SVGAnimatedString]" width="2.000000" height="2.000000" x="28.000000" y="32.000000" />
		</g>
	</g>
</svg>
