<svg viewBox="0 0 42 46" xmlns="http://www.w3.org/2000/svg" xmlns:xlink="http://www.w3.org/1999/xlink" width="42.000000" height="46.000000" fill="none" customFrame="#000000">
	<defs>
		<clipPath id="clipPath_5">
			<rect width="42.000000" height="42.000000" x="0.000000" y="4.000000" rx="4.000000" fill="rgb(255,255,255)" />
		</clipPath>
		<clipPath id="clipPath_6">
			<rect width="24.000000" height="24.000000" x="9.000000" y="13.000000" fill="rgb(255,255,255)" />
		</clipPath>
	</defs>
	<rect id="margin_wrapper8" width="42.000000" height="46.000000" x="0.000000" y="0.000000" />
	<g id="div.flex-shrink-0 mt-1 p-2 bg-black/50 rounded border border-dota-border group-hover:border-dota-gold transition-colors" customFrame="url(#clipPath_5)">
		<rect id="div.flex-shrink-0 mt-1 p-2 bg-black/50 rounded border border-dota-border group-hover:border-dota-gold transition-colors" width="42.000000" height="42.000000" x="0.000000" y="4.000000" rx="4.000000" fill="rgb(0,0,0)" fill-opacity="0.5" />
		<rect id="div.flex-shrink-0 mt-1 p-2 bg-black/50 rounded border border-dota-border group-hover:border-dota-gold transition-colors" width="41.000000" height="41.000000" x="0.500000" y="4.500000" rx="3.500000" stroke="rgb(58,58,58)" stroke-width="1.000000" />
		<g id="svg" clip-path="url(#clipPath_6)" customFrame="url(#clipPath_6)">
			<rect id="svg" width="24.000000" height="24.000000" x="9.000000" y="13.000000" />
			<path id="4539" d="M30 19L30 31L12 27L12 24L30 19Z" fill-rule="nonzero" stroke="rgb(141,37,37)" stroke-linecap="round" stroke-linejoin="round" stroke-width="2.000000" />
			<path id="4540" d="M20.6 29.8C20.431 30.4124 20.0725 30.9556 19.5759 31.3517C19.0792 31.7479 18.4699 31.9767 17.8353 32.0052C17.2006 32.0338 16.5732 31.8607 16.043 31.5108C15.5127 31.1609 15.1069 30.6521 14.8836 30.0573C14.6603 29.4626 14.631 28.8124 14.8 28.2" fill-rule="nonzero" stroke="rgb(141,37,37)" stroke-linecap="round" stroke-linejoin="round" stroke-width="2.000000" />
			<rect id="path.[object SVGAnimatedString]" width="18.000000" height="12.000000" x="12.000000" y="19.000000" />
			<rect id="path.[object SVGAnimatedString]" width="5.910000" height="4.000000" x="15.000000" y="28.000000" />
		</g>
	</g>
</svg>
