<svg viewBox="0 0 24 24" xmlns="http://www.w3.org/2000/svg" xmlns:xlink="http://www.w3.org/1999/xlink" width="24.000000" height="24.000000" fill="none">
	<rect id="svg" width="24.000000" height="24.000000" x="0.000000" y="0.000000" />
	<path id="4643" d="M14.5 17.5L3 6L3 3L6 3L17.5 14.5" fill-rule="nonzero" stroke="rgb(194,163,107)" stroke-linecap="round" stroke-linejoin="round" stroke-width="2.000000" />
	<line id="4644" x1="0" x2="8.48528004" y1="0" y2="0" stroke="rgb(194,163,107)" stroke-linecap="round" stroke-linejoin="round" stroke-width="2.000000" transform="matrix(0.707107,-0.707107,0.707107,0.707107,13,19)" />
	<path id="4645" d="M0 0C2.20617 0 5.65685 0 5.65685 0" stroke="rgb(194,163,107)" stroke-linecap="round" stroke-linejoin="round" stroke-width="2.000000" transform="matrix(0.707107,0.707107,-0.707107,0.707107,16,16)" />
	<line id="4646" x1="0" x2="2.82842684" y1="0" y2="0" stroke="rgb(194,163,107)" stroke-linecap="round" stroke-linejoin="round" stroke-width="2.000000" transform="matrix(0.707107,-0.707107,0.707107,0.707107,19,21)" />
	<path id="4647" d="M14.5 6.5L18 3L21 3L21 6L17.5 9.5" fill-rule="nonzero" stroke="rgb(194,163,107)" stroke-linecap="round" stroke-linejoin="round" stroke-width="2.000000" />
	<line id="4648" x1="0" x2="5.65685368" y1="0" y2="0" stroke="rgb(194,163,107)" stroke-linecap="round" stroke-linejoin="round" stroke-width="2.000000" transform="matrix(0.707107,0.707107,-0.707107,0.707107,5,14)" />
	<line id="4649" x1="0" x2="4.24264002" y1="0" y2="0" stroke="rgb(194,163,107)" stroke-linecap="round" stroke-linejoin="round" stroke-width="2.000000" transform="matrix(-0.707107,0.707107,-0.707107,-0.707107,7,17)" />
	<line id="4650" x1="0" x2="2.82842684" y1="0" y2="0" stroke="rgb(194,163,107)" stroke-linecap="round" stroke-linejoin="round" stroke-width="2.000000" transform="matrix(0.707107,0.707107,-0.707107,0.707107,3,19)" />
	<rect id="polyline.[object SVGAnimatedString]" width="14.500000" height="15.000000" x="3.000000" y="3.000000" />
	<rect id="line.[object SVGAnimatedString]" width="6.000000" height="6.000000" x="13.000000" y="13.000000" />
	<rect id="line.[object SVGAnimatedString]" width="4.000000" height="4.000000" x="16.000000" y="16.000000" />
	<rect id="line.[object SVGAnimatedString]" width="2.000000" height="2.000000" x="19.000000" y="19.000000" />
	<rect id="polyline.[object SVGAnimatedString]" width="6.500000" height="7.000000" x="14.000000" y="3.000000" />
	<rect id="line.[object SVGAnimatedString]" width="4.000000" height="4.000000" x="5.000000" y="14.000000" />
	<rect id="line.[object SVGAnimatedString]" width="3.000000" height="3.000000" x="4.000000" y="17.000000" />
	<rect id="line.[object SVGAnimatedString]" width="2.000000" height="2.000000" x="3.000000" y="19.000000" />
</svg>
